<?xml version="1.0" encoding="utf-8"?>
<!-- Generator: Adobe Illustrator 17.0.0, SVG Export Plug-In . SVG Version: 6.00 Build 0)  -->
<!DOCTYPE svg PUBLIC "-//W3C//DTD SVG 1.1//EN" "http://www.w3.org/Graphics/SVG/1.1/DTD/svg11.dtd">
<svg version="1.1" id="Layer_1" xmlns="http://www.w3.org/2000/svg" xmlns:xlink="http://www.w3.org/1999/xlink" x="0px" y="0px"
	 width="500px" height="96.579px" viewBox="0 0 500 96.579" enable-background="new 0 0 500 96.579" xml:space="preserve">
<g>
	<path fill="#010202" d="M11.807,82.51h1.91v10.601h-1.91v-7.525l-0.058-0.02l-4.633,7.545h-1.9V82.51h1.9v7.525l0.058,0.019
		L11.807,82.51z"/>
	<path fill="#010202" d="M30.149,93.111H28.24v-4.507h-4.672v4.507h-1.909V82.51h1.909v4.585h4.672V82.51h1.909
		C30.149,82.51,30.149,93.111,30.149,93.111z"/>
	<path fill="#010202" d="M46.591,93.111h-1.909v-4.507H40.01v4.507h-1.909V82.51h1.909v4.585h4.672V82.51h1.909V93.111z"/>
	<path fill="#010202" d="M54.097,87.712c0-1.567,0.42-2.859,1.26-3.874c0.84-1.016,1.98-1.523,3.421-1.523
		c1.454,0,2.602,0.506,3.446,1.519c0.843,1.013,1.265,2.305,1.265,3.878v0.216c0,1.581-0.42,2.875-1.26,3.881
		s-1.983,1.508-3.431,1.508s-2.593-0.504-3.436-1.513c-0.844-1.009-1.265-2.3-1.265-3.875V87.712z M56.007,87.928
		c0,1.124,0.234,2.052,0.703,2.783c0.468,0.732,1.165,1.097,2.089,1.097c0.911,0,1.602-0.366,2.074-1.097
		c0.472-0.732,0.708-1.659,0.708-2.783v-0.216c0-1.11-0.238-2.034-0.713-2.772c-0.475-0.738-1.171-1.106-2.089-1.106
		c-0.911,0-1.601,0.368-2.069,1.106c-0.469,0.738-0.703,1.663-0.703,2.772V87.928z"/>
	<path fill="#010202" d="M70.995,93.111V82.51h4.139c1.382,0,2.455,0.244,3.218,0.73c0.762,0.486,1.144,1.215,1.144,2.19
		c0,0.495-0.149,0.939-0.446,1.327s-0.717,0.685-1.26,0.887c0.652,0.164,1.161,0.469,1.526,0.916
		c0.365,0.448,0.548,0.959,0.548,1.534c0,0.992-0.357,1.744-1.071,2.253c-0.714,0.511-1.711,0.765-2.99,0.765h-4.808V93.111z
		 M72.905,86.987h2.239c0.808,0,1.417-0.12,1.827-0.361c0.41-0.242,0.616-0.609,0.616-1.097c0-0.504-0.207-0.883-0.621-1.137
		s-1.024-0.381-1.832-0.381h-2.229V86.987z M72.905,88.468v3.154h2.898c0.704,0,1.237-0.135,1.599-0.406s0.543-0.661,0.543-1.171
		c0-0.503-0.181-0.892-0.543-1.166s-0.895-0.41-1.599-0.41L72.905,88.468L72.905,88.468z"/>
	<path fill="#010202" d="M93.873,93.111c-0.065-0.32-0.114-0.602-0.15-0.847s-0.057-0.491-0.063-0.74
		c-0.355,0.511-0.819,0.937-1.391,1.279c-0.572,0.343-1.188,0.514-1.847,0.514c-1.092,0-1.924-0.282-2.496-0.847
		c-0.572-0.564-0.858-1.343-0.858-2.336c0-1.013,0.405-1.804,1.216-2.376c0.811-0.571,1.911-0.856,3.3-0.856h2.074v-1.048
		c0-0.621-0.187-1.113-0.562-1.475s-0.905-0.543-1.59-0.543c-0.621,0-1.121,0.156-1.502,0.469s-0.572,0.689-0.572,1.127
		l-1.813,0.019L87.6,85.392c-0.046-0.771,0.312-1.476,1.071-2.116s1.74-0.959,2.942-0.959c1.189,0,2.145,0.306,2.869,0.916
		c0.723,0.61,1.085,1.491,1.085,2.641v5.104c0,0.379,0.02,0.745,0.059,1.097c0.038,0.353,0.11,0.7,0.213,1.039h-1.966V93.111z
		 M90.704,91.7c0.691,0,1.315-0.18,1.871-0.539s0.918-0.772,1.086-1.236v-1.724h-2.142c-0.769,0-1.384,0.196-1.846,0.588
		c-0.462,0.391-0.693,0.853-0.693,1.382c0,0.471,0.146,0.843,0.436,1.117C89.706,91.563,90.135,91.7,90.704,91.7z"/>
	<path fill="#010202" d="M103.502,82.51h1.909v9.093h4.681V82.51h1.91v9.093h1.279v4.977h-1.909v-3.468h-7.87V82.51z"/>
	<path fill="#010202" d="M127.058,82.51h1.91v10.601h-1.91v-7.525L127,85.566l-4.633,7.545h-1.9V82.51h1.9v7.525l0.058,0.019
		L127.058,82.51z"/>
	<path fill="#010202" d="M136.464,87.712c0-1.567,0.42-2.859,1.26-3.874c0.84-1.016,1.98-1.523,3.421-1.523
		c1.454,0,2.602,0.506,3.446,1.519c0.843,1.013,1.265,2.305,1.265,3.878v0.216c0,1.581-0.42,2.875-1.26,3.881
		s-1.983,1.508-3.431,1.508c-1.447,0-2.593-0.504-3.436-1.513c-0.844-1.009-1.265-2.3-1.265-3.875V87.712z M138.374,87.928
		c0,1.124,0.234,2.052,0.703,2.783c0.468,0.732,1.165,1.097,2.089,1.097c0.911,0,1.602-0.366,2.074-1.097
		c0.472-0.732,0.708-1.659,0.708-2.783v-0.216c0-1.11-0.238-2.034-0.713-2.772c-0.475-0.738-1.171-1.106-2.089-1.106
		c-0.911,0-1.601,0.368-2.069,1.106c-0.469,0.738-0.703,1.663-0.703,2.772V87.928z"/>
	<path fill="#010202" d="M161.842,93.111h-1.909v-4.507h-4.672v4.507h-1.909V82.51h1.909v4.585h4.672V82.51h1.909V93.111z"/>
	<path fill="#010202" d="M178.284,93.111h-1.909v-4.507h-4.672v4.507h-1.909V82.51h1.909v4.585h4.672V82.51h1.909V93.111z"/>
	<path fill="#010202" d="M188.437,86.546h2.607c1.241,0,2.205,0.3,2.893,0.902c0.688,0.6,1.032,1.381,1.032,2.342
		c0,0.966-0.347,1.762-1.042,2.385s-1.656,0.936-2.883,0.936h-4.517V82.51h1.91V86.546z M188.437,88.055v3.547h2.607
		c0.685,0,1.19-0.166,1.517-0.5s0.49-0.748,0.49-1.244c0-0.483-0.165-0.904-0.495-1.263s-0.833-0.54-1.512-0.54
		C191.044,88.055,188.437,88.055,188.437,88.055z M198.729,93.111h-1.909V82.51h1.909V93.111z"/>
	<path fill="#010202" d="M211.412,93.316c-1.505,0-2.68-0.486-3.523-1.459c-0.844-0.975-1.265-2.255-1.265-3.842v-0.432
		c0-1.521,0.434-2.781,1.304-3.776c0.869-0.997,1.93-1.494,3.184-1.494c1.402,0,2.454,0.44,3.155,1.323
		c0.701,0.881,1.052,2.054,1.052,3.517v1.019h-6.707l-0.029,0.049c0,1.064,0.233,1.928,0.698,2.592
		c0.465,0.662,1.176,0.995,2.132,0.995c0.646,0,1.213-0.094,1.701-0.28s0.906-0.443,1.255-0.768l0.747,1.253
		c-0.375,0.366-0.869,0.675-1.483,0.926C213.017,93.191,212.277,93.316,211.412,93.316z M211.111,83.833
		c-0.665,0-1.216,0.259-1.652,0.778c-0.437,0.52-0.703,1.184-0.8,1.994l0.019,0.049h4.73v-0.157c0-0.771-0.187-1.407-0.562-1.91
		C212.472,84.084,211.893,83.833,211.111,83.833z"/>
	<path fill="#010202" d="M235.699,88.614h-0.979v4.497h-1.909V82.51h1.909v4.477h0.814l3.751-4.477h2.239l0.02,0.049l-4.352,5.037
		l4.681,5.466l-0.02,0.049h-2.346L235.699,88.614z"/>
	<path fill="#010202" d="M248.081,87.712c0-1.567,0.42-2.859,1.26-3.874c0.84-1.016,1.98-1.523,3.421-1.523
		c1.454,0,2.603,0.506,3.446,1.519c0.843,1.013,1.265,2.305,1.265,3.878v0.216c0,1.581-0.42,2.875-1.26,3.881
		s-1.984,1.508-3.431,1.508s-2.593-0.504-3.436-1.513s-1.265-2.3-1.265-3.875L248.081,87.712L248.081,87.712z M249.99,87.928
		c0,1.124,0.234,2.052,0.703,2.783c0.468,0.732,1.165,1.097,2.089,1.097c0.911,0,1.602-0.366,2.074-1.097
		c0.472-0.732,0.708-1.659,0.708-2.783v-0.216c0-1.11-0.238-2.034-0.713-2.772c-0.475-0.738-1.171-1.106-2.089-1.106
		c-0.911,0-1.601,0.368-2.07,1.106c-0.468,0.738-0.703,1.663-0.703,2.772v0.216H249.99z"/>
	<path fill="#010202" d="M273.458,93.111h-1.91v-4.507h-4.671v4.507h-1.909V82.51h1.909v4.585h4.671V82.51h1.91V93.111z"/>
	<path fill="#010202" d="M281.41,82.51h1.909v9.093H288V82.51h1.909v9.093h1.28v4.977h-1.91v-3.468h-7.869V82.51z"/>
	<path fill="#010202" d="M302.719,93.316c-1.507,0-2.681-0.486-3.524-1.459c-0.843-0.975-1.265-2.255-1.265-3.842v-0.432
		c0-1.521,0.435-2.781,1.304-3.776c0.869-0.997,1.93-1.494,3.184-1.494c1.403,0,2.454,0.44,3.155,1.323
		c0.701,0.881,1.052,2.054,1.052,3.517v1.019h-6.706l-0.029,0.049c0,1.064,0.232,1.928,0.698,2.592
		c0.465,0.662,1.175,0.995,2.132,0.995c0.646,0,1.212-0.094,1.701-0.28c0.487-0.186,0.907-0.443,1.256-0.768l0.746,1.253
		c-0.375,0.366-0.87,0.675-1.483,0.926C304.324,93.191,303.584,93.316,302.719,93.316z M302.418,83.833
		c-0.666,0-1.217,0.259-1.653,0.778c-0.436,0.52-0.703,1.184-0.8,1.994l0.02,0.049h4.729v-0.157c0-0.771-0.187-1.407-0.562-1.91
		C303.778,84.084,303.2,83.833,302.418,83.833z"/>
	<path fill="#010202" d="M322.426,93.111h-1.909v-9.073h-4.681v9.073h-1.909V82.51h8.499V93.111z"/>
	<path fill="#010202" d="M330.369,82.51h1.909v9.093h4.681V82.51h1.909v9.093h1.28v4.977h-1.91v-3.468h-7.869V82.51z"/>
	<path fill="#010202" d="M353.925,82.51h1.909v10.601h-1.909v-7.525l-0.058-0.02l-4.633,7.545h-1.899V82.51h1.899v7.525l0.059,0.019
		L353.925,82.51z"/>
	<path fill="#010202" d="M370.368,82.51h1.909v10.601h-1.909v-7.525l-0.058-0.02l-4.633,7.545h-1.899V82.51h1.899v7.525l0.059,0.019
		L370.368,82.51z"/>
	<path fill="#010202" d="M394.927,82.315c1.337,0,2.394,0.506,3.169,1.519s1.163,2.305,1.163,3.878v0.216
		c0,1.581-0.42,2.875-1.26,3.881s-1.984,1.508-3.431,1.508s-2.593-0.504-3.436-1.513c-0.843-1.009-1.265-2.3-1.265-3.875v-0.216
		c0-0.051,0-0.096,0-0.132s0.003-0.076,0.01-0.123v-2.302c0-2.012,0.398-3.494,1.197-4.444c0.798-0.951,1.973-1.469,3.524-1.553
		c0.891-0.045,1.579-0.158,2.064-0.338c0.484-0.18,0.727-0.487,0.727-0.926h1.463l0.019,0.059c0.032,1.031-0.307,1.755-1.017,2.17
		c-0.711,0.415-1.742,0.636-3.092,0.66c-0.982,0.027-1.77,0.301-2.364,0.824c-0.595,0.523-0.882,1.297-0.863,2.322l0.029,0.049
		c0.381-0.49,0.869-0.89,1.463-1.2C393.622,82.468,394.254,82.315,394.927,82.315z M394.549,83.833
		c-0.911,0-1.599,0.368-2.064,1.106c-0.465,0.738-0.698,1.663-0.698,2.772v0.216c0,1.124,0.233,2.052,0.698,2.783
		c0.465,0.732,1.16,1.097,2.083,1.097c0.911,0,1.602-0.366,2.074-1.097c0.472-0.732,0.708-1.659,0.708-2.783v-0.216
		c0-1.11-0.238-2.034-0.713-2.772C396.162,84.201,395.467,83.833,394.549,83.833z"/>
	<path fill="#010202" d="M412.881,82.51h1.909v10.601h-1.909v-7.525l-0.058-0.02l-4.633,7.545h-1.899V82.51h1.899v7.525l0.059,0.019
		L412.881,82.51z"/>
	<path fill="#010202" d="M426.804,86.919c0.744,0,1.291-0.13,1.644-0.391c0.351-0.261,0.527-0.633,0.527-1.117
		c0-0.437-0.195-0.812-0.587-1.122c-0.39-0.31-0.958-0.466-1.701-0.466c-0.659,0-1.211,0.161-1.657,0.481s-0.669,0.708-0.669,1.165
		h-1.803l-0.019-0.058c-0.039-0.908,0.346-1.648,1.153-2.219c0.808-0.571,1.806-0.858,2.995-0.858c1.292,0,2.315,0.267,3.068,0.798
		c0.753,0.532,1.128,1.292,1.128,2.278c0,0.477-0.156,0.914-0.469,1.314c-0.313,0.397-0.748,0.711-1.304,0.94
		c0.633,0.209,1.12,0.523,1.459,0.94c0.339,0.418,0.508,0.924,0.508,1.519c0,0.986-0.407,1.762-1.221,2.327s-1.87,0.847-3.169,0.847
		c-1.195,0-2.222-0.28-3.082-0.837c-0.86-0.559-1.269-1.367-1.231-2.425l0.02-0.059h1.802c0,0.497,0.233,0.928,0.698,1.294
		s1.063,0.549,1.793,0.549c0.756,0,1.357-0.163,1.803-0.49c0.445-0.327,0.668-0.728,0.668-1.205c0-0.562-0.196-0.975-0.591-1.24
		c-0.394-0.263-0.982-0.396-1.764-0.396h-2.016V86.92h2.017V86.919z"/>
	<path fill="#010202" d="M447.074,93.111h-1.91v-4.507h-4.671v4.507h-1.909V82.51h1.909v4.585h4.671V82.51h1.91V93.111z"/>
	<path fill="#010202" d="M459.368,93.316c-1.507,0-2.681-0.486-3.524-1.459c-0.843-0.975-1.265-2.255-1.265-3.842v-0.432
		c0-1.521,0.435-2.781,1.304-3.776c0.869-0.997,1.93-1.494,3.184-1.494c1.403,0,2.454,0.44,3.155,1.323
		c0.701,0.881,1.052,2.054,1.052,3.517v1.019h-6.706l-0.029,0.049c0,1.064,0.232,1.928,0.698,2.592
		c0.465,0.662,1.175,0.995,2.132,0.995c0.646,0,1.212-0.094,1.701-0.28c0.487-0.186,0.907-0.443,1.256-0.768l0.746,1.253
		c-0.375,0.366-0.87,0.675-1.483,0.926C460.973,93.191,460.234,93.316,459.368,93.316z M459.067,83.833
		c-0.666,0-1.217,0.259-1.653,0.778c-0.436,0.52-0.703,1.184-0.8,1.994l0.02,0.049h4.729v-0.157c0-0.771-0.187-1.407-0.562-1.91
		C460.428,84.084,459.849,83.833,459.067,83.833z"/>
	<path fill="#010202" d="M474.745,91.809c0.588,0,1.102-0.198,1.541-0.593s0.659-0.881,0.659-1.455h1.725l0.029,0.059
		c0.026,0.914-0.361,1.726-1.163,2.434c-0.801,0.709-1.732,1.063-2.791,1.063c-1.473,0-2.61-0.506-3.411-1.519
		c-0.802-1.013-1.202-2.273-1.202-3.781v-0.411c0-1.495,0.403-2.752,1.207-3.767c0.805-1.016,1.94-1.523,3.407-1.523
		c1.17,0,2.128,0.366,2.874,1.097c0.746,0.732,1.106,1.629,1.081,2.694l-0.019,0.058h-1.735c0-0.647-0.209-1.197-0.624-1.65
		c-0.417-0.454-0.942-0.68-1.576-0.68c-0.937,0-1.62,0.367-2.05,1.102c-0.429,0.734-0.645,1.625-0.645,2.67v0.411
		c0,1.065,0.212,1.964,0.635,2.695C473.109,91.443,473.795,91.809,474.745,91.809z"/>
	<path fill="#010202" d="M492.573,93.111c-0.065-0.32-0.115-0.602-0.151-0.847s-0.057-0.491-0.062-0.74
		c-0.356,0.511-0.82,0.937-1.392,1.279c-0.572,0.343-1.186,0.514-1.846,0.514c-1.093,0-1.925-0.282-2.497-0.847
		c-0.571-0.564-0.858-1.343-0.858-2.336c0-1.013,0.406-1.804,1.217-2.376c0.811-0.571,1.911-0.856,3.301-0.856h2.074v-1.048
		c0-0.621-0.188-1.113-0.563-1.475s-0.904-0.543-1.589-0.543c-0.62,0-1.121,0.156-1.502,0.469s-0.572,0.689-0.572,1.127
		l-1.812,0.019l-0.02-0.059c-0.045-0.771,0.312-1.476,1.072-2.116s1.74-0.959,2.942-0.959c1.189,0,2.144,0.306,2.868,0.916
		s1.086,1.491,1.086,2.641v5.104c0,0.379,0.019,0.745,0.058,1.097c0.039,0.353,0.109,0.7,0.213,1.039h-1.967V93.111z M489.404,91.7
		c0.691,0,1.315-0.18,1.87-0.539s0.918-0.772,1.086-1.236v-1.724h-2.142c-0.769,0-1.385,0.196-1.847,0.588
		c-0.462,0.391-0.693,0.853-0.693,1.382c0,0.471,0.145,0.843,0.436,1.117C488.405,91.563,488.835,91.7,489.404,91.7z"/>
</g>
<g>
	<path fill="#E41913" d="M239.223,13.474c-1.61,0.356-3.114,1.016-4.511,1.985c-1.397,0.968-2.613,2.178-3.649,3.63
		c-1.035,1.453-1.849,3.122-2.44,5.01s-0.887,3.914-0.887,6.075c0,3.067,0.51,5.85,1.528,8.35c1.019,2.501,2.523,4.632,4.511,6.391
		c1.989,1.759,4.471,3.115,7.445,4.066c2.975,0.952,6.433,1.428,10.378,1.428c3.944,0,7.42-0.476,10.427-1.428
		c3.007-0.951,5.53-2.307,7.567-4.066c2.038-1.759,3.583-3.873,4.634-6.342c1.053-2.469,1.578-5.22,1.578-8.254
		c0-4.582-1.043-8.358-3.13-11.326c-2.087-2.97-5.135-4.808-9.146-5.519V9.456c2.564,0.387,4.856,1.179,6.878,2.372
		c2.022,1.194,3.722,2.695,5.103,4.502c1.381,1.808,2.433,3.89,3.156,6.245c0.723,2.356,1.084,4.905,1.084,7.649
		c0,3.743-0.666,7.108-1.996,10.093c-1.331,2.985-3.213,5.527-5.646,7.624c-2.432,2.098-5.382,3.711-8.85,4.841
		c-3.467,1.13-7.354,1.694-11.66,1.694c-4.273,0-8.118-0.564-11.537-1.694c-3.418-1.13-6.336-2.751-8.751-4.865
		c-2.416-2.113-4.273-4.663-5.572-7.649c-1.298-2.984-1.947-6.333-1.947-10.044c0-2.549,0.378-4.978,1.134-7.286
		c0.757-2.306,1.817-4.38,3.18-6.22c1.364-1.839,2.991-3.388,4.881-4.647c1.891-1.259,3.969-2.13,6.237-2.614v4.017H239.223z"/>
</g>
<g>
	<path fill="#010202" d="M40.963,15.431c-0.356-1.61-1.016-3.113-1.985-4.511c-0.968-1.397-2.178-2.614-3.63-3.649
		c-1.452-1.036-3.122-1.849-5.01-2.441c-1.888-0.591-3.913-0.887-6.075-0.887c-3.066,0-5.85,0.51-8.35,1.528
		c-2.501,1.019-4.632,2.524-6.39,4.512c-1.759,1.988-3.115,4.471-4.066,7.445c-0.952,2.975-1.428,6.434-1.428,10.378
		s0.476,7.42,1.428,10.427c0.951,3.007,2.307,5.53,4.066,7.568s3.873,3.583,6.342,4.634s5.219,1.577,8.254,1.577
		c4.582,0,8.358-1.043,11.327-3.13s4.808-5.135,5.519-9.146h4.018c-0.388,2.564-1.179,4.856-2.372,6.878
		c-1.194,2.022-2.695,3.722-4.502,5.103c-1.808,1.381-3.89,2.433-6.245,3.156c-2.356,0.723-4.906,1.085-7.649,1.085
		c-3.744,0-7.108-0.666-10.093-1.997s-5.527-3.213-7.624-5.646c-2.098-2.431-3.711-5.382-4.841-8.85
		c-1.13-3.467-1.694-7.353-1.694-11.66c0-4.273,0.564-8.118,1.694-11.537c1.13-3.418,2.751-6.336,4.865-8.751
		c2.113-2.415,4.663-4.272,7.648-5.571C17.154,0.649,20.503,0,24.214,0c2.549,0,4.978,0.378,7.286,1.133
		c2.307,0.757,4.381,1.817,6.22,3.18c1.839,1.365,3.388,2.992,4.647,4.881c1.258,1.891,2.13,3.969,2.614,6.237H40.963z"/>
	<path fill="#010202" d="M99.23,0c3.614,0,6.954,0.657,10.02,1.972c3.066,1.315,5.704,3.188,7.915,5.62
		c2.21,2.433,3.937,5.358,5.18,8.776c1.242,3.419,1.864,7.232,1.864,11.439c0,4.174-0.613,7.986-1.839,11.438
		c-1.227,3.451-2.946,6.419-5.156,8.9c-2.211,2.482-4.841,4.405-7.89,5.768c-3.05,1.363-6.414,2.046-10.093,2.046
		s-7.051-0.684-10.117-2.046c-3.066-1.364-5.704-3.28-7.915-5.744c-2.211-2.466-3.929-5.424-5.155-8.875
		c-1.227-3.45-1.839-7.279-1.839-11.487c0-4.241,0.621-8.069,1.864-11.488c1.242-3.418,2.977-6.335,5.204-8.751
		c2.226-2.415,4.865-4.281,7.915-5.596C92.235,0.657,95.583,0,99.23,0z M99.182,52.013c3.033,0,5.833-0.533,8.398-1.601
		c2.566-1.068,4.784-2.638,6.656-4.709c1.871-2.071,3.324-4.61,4.357-7.617c1.032-3.007,1.549-6.434,1.549-10.279
		c0-3.878-0.525-7.297-1.573-10.256c-1.049-2.957-2.501-5.447-4.357-7.469s-4.05-3.549-6.583-4.585
		c-2.534-1.035-5.301-1.552-8.302-1.552c-3.066,0-5.881,0.525-8.447,1.577c-2.565,1.053-4.784,2.589-6.656,4.61
		c-1.872,2.022-3.333,4.512-4.381,7.47c-1.049,2.957-1.573,6.36-1.573,10.206c0,3.845,0.516,7.272,1.549,10.279
		c1.033,3.007,2.476,5.547,4.332,7.617c1.856,2.071,4.066,3.641,6.632,4.709C93.349,51.48,96.148,52.013,99.182,52.013z"/>
	<path fill="#010202" d="M196.271,54.972h-5.083L158.852,5.669v49.303h-3.872V0.986h5.325l32.094,49.205V0.986h3.873v53.986H196.271
		z"/>
</g>
<g>
	<path fill="#010202" d="M326.932,0c3.614,0,6.954,0.657,10.02,1.972c3.065,1.315,5.704,3.188,7.915,5.62
		c2.21,2.433,3.936,5.358,5.18,8.776c1.241,3.419,1.863,7.232,1.863,11.439c0,4.174-0.613,7.986-1.84,11.438s-2.945,6.419-5.155,8.9
		c-2.21,2.482-4.841,4.405-7.891,5.768c-3.05,1.363-6.413,2.046-10.093,2.046c-3.679,0-7.051-0.684-10.116-2.046
		c-3.067-1.364-5.705-3.28-7.915-5.744c-2.21-2.466-3.929-5.424-5.155-8.875c-1.227-3.45-1.84-7.279-1.84-11.487
		c0-4.241,0.621-8.069,1.864-11.488c1.241-3.418,2.976-6.335,5.203-8.751c2.227-2.415,4.865-4.281,7.915-5.596S323.285,0,326.932,0z
		 M326.884,52.013c3.033,0,5.833-0.533,8.399-1.601c2.565-1.068,4.784-2.638,6.655-4.709s3.324-4.61,4.357-7.617
		s1.549-6.434,1.549-10.279c0-3.878-0.524-7.297-1.572-10.256c-1.049-2.957-2.501-5.447-4.357-7.469
		c-1.857-2.022-4.05-3.549-6.584-4.585c-2.534-1.035-5.3-1.552-8.302-1.552c-3.067,0-5.881,0.525-8.447,1.577
		c-2.566,1.053-4.785,2.589-6.656,4.61c-1.871,2.022-3.332,4.512-4.38,7.47c-1.049,2.957-1.573,6.36-1.573,10.206
		c0,3.845,0.515,7.272,1.549,10.279c1.033,3.007,2.477,5.547,4.332,7.617c1.856,2.071,4.067,3.641,6.632,4.709
		C321.05,51.48,323.849,52.013,326.884,52.013z"/>
	<path fill="#010202" d="M425.618,54.972h-4.26l-5.276-14.347c-0.517-1.381-1.089-2.679-1.718-3.895
		c-0.63-1.215-1.364-2.275-2.202-3.179c-0.84-0.904-1.8-1.619-2.88-2.145c-1.082-0.525-2.348-0.788-3.8-0.788h-18.54v24.355h-3.873
		V0.986h23.865c2.227,0,4.381,0.205,6.462,0.616c2.082,0.411,3.937,1.143,5.568,2.195c1.629,1.053,2.928,2.507,3.896,4.363
		c0.968,1.857,1.452,4.232,1.452,7.124c0,1.808-0.217,3.493-0.653,5.053c-0.435,1.562-1.097,2.958-1.984,4.192
		c-0.889,1.232-2.017,2.285-3.389,3.155c-1.373,0.872-2.977,1.504-4.816,1.898c0.999,0.79,1.822,1.546,2.468,2.268
		c0.646,0.724,1.202,1.496,1.67,2.317c0.467,0.822,0.888,1.726,1.259,2.712c0.37,0.986,0.798,2.12,1.282,3.402L425.618,54.972z
		 M386.941,26.672h18.395c2.614,0,4.856-0.197,6.729-0.592c1.871-0.394,3.412-1.043,4.622-1.947
		c1.211-0.903,2.106-2.079,2.687-3.525c0.58-1.446,0.871-3.222,0.871-5.325c0-3.714-1.154-6.368-3.461-7.963
		c-2.307-1.594-5.753-2.391-10.335-2.391h-19.508L386.941,26.672L386.941,26.672z"/>
	<path fill="#010202" d="M500.201,27.56c0,18.275-8.924,27.412-26.769,27.412h-16.023V1.035h16.023
		c8.939,0,15.635,2.193,20.089,6.581C497.974,12.004,500.201,18.653,500.201,27.56z M496.086,27.56c0-3.551-0.348-6.722-1.042-9.515
		s-1.911-5.169-3.654-7.124s-4.075-3.443-6.995-4.463c-2.921-1.018-6.607-1.528-11.061-1.528h-12.053v46.098h12.053
		c4.421,0,8.091-0.525,11.013-1.578c2.921-1.052,5.252-2.588,6.994-4.61c1.743-2.021,2.97-4.477,3.68-7.37
		C495.73,34.578,496.086,31.275,496.086,27.56z"/>
</g>
</svg>
